<?xml version="1.0" standalone="no"?>
<!DOCTYPE svg PUBLIC "-//W3C//DTD SVG 1.1//EN" "http://www.w3.org/Graphics/SVG/1.1/DTD/svg11.dtd">
<svg class="icon" height="512" viewBox="0 0 1024 1024" version="1.1" xmlns="http://www.w3.org/2000/svg"><path fill="rgb(84, 116, 253)" d="M470.848 548.576V768q0 45.728-32 77.728t-77.728 32H141.696q-45.728 0-77.728-32t-32-77.728V365.728q0-59.424 23.136-113.44t62.56-93.44 93.44-62.56 113.44-23.136h36.576q14.848 0 25.728 10.848t10.848 25.728v73.152q0 14.848-10.848 25.728t-25.728 10.848H324.544q-60.576 0-103.424 42.848t-42.848 103.424V384q0 22.848 16 38.848t38.848 16h128q45.728 0 77.728 32t32 77.728z m512 0V768q0 45.728-32 77.728t-77.728 32h-219.424q-45.728 0-77.728-32t-32-77.728V365.728q0-59.424 23.136-113.44t62.56-93.44 93.44-62.56 113.44-23.136h36.576q14.848 0 25.728 10.848t10.848 25.728v73.152q0 14.848-10.848 25.728t-25.728 10.848h-36.576q-60.576 0-103.424 42.848t-42.848 103.424V384q0 22.848 16 38.848t38.848 16h128q45.728 0 77.728 32t32 77.728z" /></svg>